Coordinates
version=1
nRows=27
nColumns=19
inDegrees=yes

Units are S.I. units (second, meters, Newtons, ...)
If the header above contains a line with 'inDegrees', this indicates whether rotational values are in degrees (yes) or radians (no).

endheader
time	pelvis_tilt	pelvis_list	pelvis_rotation	pelvis_tx	pelvis_ty	pelvis_tz	hip_flexion_r	hip_adduction_r	hip_rotation_r	knee_angle_r	knee_angle_r_beta	ankle_angle_r	hip_flexion_l	hip_adduction_l	hip_rotation_l	knee_angle_l	knee_angle_l_beta	ankle_angle_l
     14.97333333	      2.33555114	     -8.15736705	     -9.69300986	      2.34686888	      0.96243178	      1.06231030	     16.73020210	     15.43313042	      5.72499514	     15.41047944	      0.26896361	      6.62810134	    -19.42938176	    -11.90267451	    -22.58470358	     80.39356121	      1.40313234	    -12.26926310
     14.98000000	      2.39291078	     -8.84684292	    -10.28587199	      2.34498708	      0.95684558	      1.06360175	     16.68984404	     16.14466974	      5.03022928	     17.60883701	      0.30733218	      6.29862742	    -18.21163373	    -12.84519642	    -22.57281681	     84.47453112	      1.47435870	    -11.05891622
     14.98666667	      2.57475702	     -9.60102667	    -10.91707058	      2.34287309	      0.95114618	      1.06469688	     16.64463501	     16.86485507	      4.31520707	     20.28507443	      0.35404134	      6.21004556	    -17.10111703	    -13.81873234	    -22.58204186	     88.44610572	      1.54367576	     -9.82151946
     14.99333333	      2.61318026	    -10.27289790	    -11.58316698	      2.34042450	      0.94522807	      1.06562303	     16.87644709	     17.49096171	      3.61332736	     23.34412464	      0.40743184	      6.45392729	    -15.67140341	    -14.64982156	    -22.37655623	     92.34093518	      1.61165335	     -8.65121406
     15.00000000	      3.18767827	    -11.17810074	    -12.18342546	      2.33779288	      0.93988674	      1.06613310	     16.43776384	     18.20293531	      3.06417376	     26.43284478	      0.46134017	      7.01937334	    -14.86229747	    -15.64882681	    -22.26886007	     96.00249333	      1.67555960	     -7.56240736
     15.00666667	      2.55027732	    -11.42696629	    -12.78778712	      2.33486930	      0.93363542	      1.06650503	     17.51228332	     18.43868163	      2.54478095	     29.80112133	      0.52012769	      7.88473450	    -12.17709280	    -16.14833087	    -21.46920604	     99.73915184	      1.74077659	     -6.64216870
     15.01333333	      2.45417030	    -11.85709333	    -13.27102698	      2.33183236	      0.92834027	      1.06641942	     17.78960747	     18.72279017	      2.23956222	     32.89399256	      0.57410847	      9.08725889	    -10.03286482	    -16.73310242	    -20.66384922	    103.16514846	      1.80057151	     -5.91980641
     15.02000000	      2.30040841	    -12.19153527	    -13.63785948	      2.32868564	      0.92358124	      1.06594933	     17.97363250	     18.88325213	      2.06716628	     35.70389221	      0.62315047	     10.54097453	     -7.58240393	    -17.20875840	    -19.59972776	    106.36316773	      1.85638748	     -5.38042764
     15.02666667	      2.10510511	    -12.43865487	    -13.86544744	      2.32549400	      0.91951083	      1.06511771	     17.99965858	     18.92977224	      2.02022821	     38.12431646	      0.66539485	     12.19452416	     -4.84059565	    -17.58619461	    -18.28843462	    109.28827386	      1.90744021	     -5.07325593
     15.03333333	      1.86037639	    -12.58614474	    -13.95342911	      2.32232259	      0.91620433	      1.06394179	     17.85240423	     18.84739711	      2.06552930	     40.09540545	      0.69979684	     13.94929003	     -1.81042863	    -17.83788710	    -16.75955016	    111.89170629	      1.95287868	     -4.98768599
     15.04000000	      1.56284310	    -12.62037453	    -13.90157785	      2.31926732	      0.91368330	      1.06247248	     17.52077274	     18.62760890	      2.19862134	     41.58743520	      0.72583767	     15.75981511	      1.47968860	    -17.92466129	    -15.05529558	    114.12885281	      1.99192425	     -5.02360503
     15.04666667	      1.29797481	    -12.56459439	    -13.67339767	      2.31641717	      0.91204271	      1.06072879	     16.90176564	     18.25995955	      2.34935143	     42.57242582	      0.74302900	     17.51276565	      4.89470923	    -17.83304110	    -13.20954190	    115.95217604	      2.02374725	     -5.19380328
     15.05333333	      1.27394162	    -12.45536719	    -13.23049221	      2.31395543	      0.91145307	      1.05874909	     15.75449762	     17.74174307	      2.49897633	     43.03764717	      0.75114865	     19.14478615	      8.10345793	    -17.55018291	    -11.32028377	    117.28698675	      2.04704409	     -5.40908994
     15.06000000	      1.25739836	    -12.21411354	    -12.74168834	      2.31185355	      0.91158973	      1.05679391	     14.36894382	     17.08471042	      2.70189766	     43.07938132	      0.75187704	     20.63686345	     11.27694019	    -17.04659184	     -9.53577778	    118.15065503	      2.06211794	     -5.65332878
     15.06666667	      1.16714853	    -11.80847367	    -12.16429055	      2.31023291	      0.91233755	      1.05495608	     12.84983028	     16.30047110	      2.96887781	     42.69592529	      0.74518447	     21.86236751	     14.46985782	    -16.32237349	     -7.85281768	    118.55104405	      2.06910605	     -5.79741597
     15.07333333	      1.17555462	    -11.33670089	    -11.51972163	      2.30897463	      0.91369147	      1.05332077	     11.04120118	     15.46237231	      3.25552552	     41.97443317	      0.73259206	     22.82040979	     17.40844247	    -15.48175425	     -6.33201848	    118.52486065	      2.06864906	     -5.84153441
     15.08000000	      1.10211712	    -10.74518354	    -10.77653876	      2.30821122	      0.91547422	      1.05189453	      9.16764057	     14.52223900	      3.41018759	     40.92623022	      0.71429747	     23.30770639	     20.28858879	    -14.46185542	     -4.90668460	    118.09716721	      2.06118441	     -5.69653793
     15.08666667	      1.04405618	    -10.05616830	    -10.03950785	      2.30794237	      0.91771150	      1.05086984	      7.13400490	     13.54327123	      3.60227281	     39.61925719	      0.69148649	     23.48854128	     22.90165922	    -13.36286727	     -3.73504798	    117.25691253	      2.04651919	     -5.40981471
     15.09333333	      1.04392215	     -9.27947277	     -9.26079386	      2.30815002	      0.92046953	      1.05014869	      4.92308257	     12.51041536	      3.74202476	     38.07322950	      0.66450321	     23.16489389	     25.20347141	    -12.15174445	     -2.74818897	    116.02437832	      2.02500741	     -4.92081241
     15.10000000	      1.13567772	     -8.43466787	     -8.49918413	      2.30887219	      0.92375916	      1.04978723	      2.48927006	     11.43381191	      3.83344618	     36.27693206	      0.63315191	     22.38594306	     27.11882533	    -10.91405263	     -2.01175239	    114.42025400	      1.99701016	     -4.24991018
     15.10666667	      1.42895142	     -7.53634461	     -7.85073652	      2.31009977	      0.92768057	      1.04988102	     -0.27941613	     10.33270551	      4.03177761	     34.24274405	      0.59764863	     21.10500067	     28.47995704	     -9.74096100	     -1.62439496	    112.44319976	      1.96250406	     -3.38302476
     15.11333333	      1.48127467	     -6.56621975	     -7.21928314	      2.31167362	      0.93162012	      1.05019184	     -2.79876290	      9.20960696	      4.03706489	     32.11634198	      0.56053591	     19.31667886	     29.91467612	     -8.55995063	     -1.35068771	    110.21954957	      1.92369404	     -2.42271167
     15.12000000	      1.26084422	     -5.56181969	     -6.55278898	      2.31358097	      0.93548538	      1.05058707	     -5.02481098	      8.10203720	      3.77458974	     29.91274442	      0.52207588	     17.02889064	     31.48815764	     -7.38123995	     -1.12753202	    107.77962960	      1.88110940	     -1.41185436
     15.12666667	      1.35612303	     -4.53553461	     -6.12665093	      2.31587178	      0.94002530	      1.05137750	     -7.63863435	      6.94080336	      3.67802362	     27.55728231	      0.48096531	     14.28123117	     32.38290967	     -6.38216846	     -1.33152939	    105.01305430	      1.83282356	     -0.25481429
     15.13333333	      1.09181244	     -3.52035884	     -5.58574795	      2.31837615	      0.94426390	      1.05204586	     -9.80583915	      5.84332338	      3.16322117	     25.21778099	      0.44013331	     11.08809756	     33.58625380	     -5.39356397	     -1.47710172	    102.09155343	      1.78183375	      0.80595317
     15.14000000	      0.80308685	     -2.48108292	     -5.13264115	      2.32109453	      0.94859449	      1.05271870	    -11.89278935	      4.72717277	      2.55822365	     22.89747441	      0.39963632	      7.57716375	     34.61963034	     -4.46784346	     -1.82549227	     98.94326742	      1.72688579	      1.83698350
     15.14666667	     -0.60334532	     -1.52670056	     -5.01129987	      2.32376478	      0.95173166	      1.05359980	    -12.43243014	      3.72916338	      1.99415628	     21.20434722	      0.37008567	      3.98107196	     36.73974802	     -3.95805469	     -2.44962541	     95.69836774	      1.67025161	      2.83552676
